<svg width="255" height="90" viewBox="0 0 255 90" fill="none" xmlns="http://www.w3.org/2000/svg">
<path d="M141.555 71.5156C141.555 72.4661 141.359 73.3581 140.969 74.1914C140.591 75.0247 140.077 75.7539 139.426 76.3789C138.788 77.0039 138.039 77.4987 137.18 77.8633C136.333 78.2148 135.435 78.3906 134.484 78.3906H132.473C131.522 78.3906 130.617 78.2148 129.758 77.8633C128.911 77.4987 128.163 77.0039 127.512 76.3789C126.874 75.7539 126.359 75.0247 125.969 74.1914C125.591 73.3581 125.402 72.4661 125.402 71.5156V70.4023L127.922 69.9922V71.5156C127.922 72.1406 128.046 72.7266 128.293 73.2734C128.553 73.8073 128.898 74.2826 129.328 74.6992C129.758 75.1029 130.253 75.4219 130.812 75.6562C131.385 75.8906 131.984 76.0078 132.609 76.0078H134.367C134.992 76.0078 135.585 75.8906 136.145 75.6562C136.704 75.4219 137.199 75.1029 137.629 74.6992C138.059 74.2826 138.397 73.8073 138.645 73.2734C138.905 72.7266 139.035 72.1406 139.035 71.5156V70.6758C139.035 69.7122 138.846 68.9115 138.469 68.2734C138.091 67.6354 137.59 67.0951 136.965 66.6523C136.34 66.1966 135.63 65.8125 134.836 65.5C134.055 65.1875 133.247 64.875 132.414 64.5625C131.581 64.25 130.767 63.9049 129.973 63.5273C129.191 63.1497 128.488 62.681 127.863 62.1211C127.238 61.5482 126.737 60.8516 126.359 60.0312C125.982 59.2109 125.793 58.2018 125.793 57.0039V56.4766C125.793 55.526 125.969 54.6341 126.32 53.8008C126.685 52.9674 127.18 52.2383 127.805 51.6133C128.43 50.9883 129.159 50.5 129.992 50.1484C130.839 49.7839 131.737 49.6016 132.688 49.6016H134.484C135.435 49.6016 136.327 49.7839 137.16 50.1484C137.993 50.5 138.723 50.9883 139.348 51.6133C139.973 52.2383 140.461 52.9674 140.812 53.8008C141.177 54.6341 141.359 55.526 141.359 56.4766V57.1992L138.84 57.6094V56.4766C138.84 55.8516 138.723 55.2721 138.488 54.7383C138.254 54.1914 137.935 53.7161 137.531 53.3125C137.128 52.9089 136.652 52.5898 136.105 52.3555C135.572 52.1211 134.992 52.0039 134.367 52.0039H132.805C132.18 52.0039 131.594 52.1211 131.047 52.3555C130.513 52.5898 130.038 52.9089 129.621 53.3125C129.217 53.7161 128.898 54.1914 128.664 54.7383C128.43 55.2721 128.312 55.8516 128.312 56.4766V57.0039C128.312 57.9023 128.501 58.6576 128.879 59.2695C129.257 59.8815 129.758 60.4089 130.383 60.8516C131.008 61.2812 131.711 61.6589 132.492 61.9844C133.286 62.2969 134.1 62.6224 134.934 62.9609C135.767 63.2865 136.574 63.651 137.355 64.0547C138.15 64.4453 138.859 64.9336 139.484 65.5195C140.109 66.0924 140.611 66.7956 140.988 67.6289C141.366 68.4622 141.555 69.4779 141.555 70.6758V71.5156ZM163.02 78H161.711L157.023 62.9219L156.945 61.8867L156.867 62.9219L152.18 78H150.852L144.172 58H146.613L151.379 73.1172L151.457 74.1523L151.535 73.1172L156.223 58H157.668L162.336 73.1172L162.414 74.1523L162.492 73.1172L167.258 58H169.699L163.02 78ZM185.07 78L183.742 76.0078C183.195 76.724 182.512 77.3034 181.691 77.7461C180.871 78.1758 179.973 78.3906 178.996 78.3906H178.391C177.583 78.3906 176.822 78.2409 176.105 77.9414C175.389 77.6289 174.764 77.2057 174.23 76.6719C173.697 76.138 173.273 75.513 172.961 74.7969C172.661 74.0807 172.512 73.319 172.512 72.5117V72.3164C172.512 71.5091 172.661 70.7474 172.961 70.0312C173.273 69.3151 173.697 68.6901 174.23 68.1562C174.764 67.6224 175.389 67.2057 176.105 66.9062C176.822 66.5938 177.583 66.4375 178.391 66.4375H183.469V63.3516C183.469 62.8698 183.378 62.4206 183.195 62.0039C183.013 61.5742 182.766 61.2031 182.453 60.8906C182.141 60.5781 181.77 60.3307 181.34 60.1484C180.923 59.9661 180.474 59.875 179.992 59.875H178.586C178.104 59.875 177.648 59.9661 177.219 60.1484C176.802 60.3307 176.438 60.5781 176.125 60.8906C175.812 61.2031 175.565 61.5742 175.383 62.0039C175.201 62.4206 175.109 62.8698 175.109 63.3516V64.0742L172.707 63.6836V63.4883C172.707 62.681 172.857 61.9193 173.156 61.2031C173.469 60.487 173.892 59.862 174.426 59.3281C174.96 58.7943 175.585 58.3776 176.301 58.0781C177.017 57.7656 177.779 57.6094 178.586 57.6094H179.992C180.799 57.6094 181.561 57.7656 182.277 58.0781C182.993 58.3776 183.618 58.7943 184.152 59.3281C184.686 59.862 185.103 60.487 185.402 61.2031C185.715 61.9193 185.871 62.681 185.871 63.4883V78H185.07ZM183.469 68.3125H178.391C177.909 68.3125 177.453 68.4036 177.023 68.5859C176.607 68.7682 176.242 69.0221 175.93 69.3477C175.617 69.6602 175.37 70.0312 175.188 70.4609C175.005 70.8776 174.914 71.3268 174.914 71.8086V72.6484C174.914 73.1302 175.005 73.5859 175.188 74.0156C175.37 74.4323 175.617 74.7969 175.93 75.1094C176.242 75.4219 176.607 75.6693 177.023 75.8516C177.453 76.0339 177.909 76.125 178.391 76.125H179.992C180.474 76.125 180.923 76.0339 181.34 75.8516C181.77 75.6693 182.141 75.4219 182.453 75.1094C182.766 74.7969 183.013 74.4323 183.195 74.0156C183.378 73.5859 183.469 73.1302 183.469 72.6484V68.3125ZM204.035 72.5117C204.035 73.319 203.879 74.0807 203.566 74.7969C203.267 75.513 202.85 76.138 202.316 76.6719C201.783 77.2057 201.158 77.6289 200.441 77.9414C199.725 78.2409 198.964 78.3906 198.156 78.3906H197.551C196.652 78.3906 195.819 78.2083 195.051 77.8438C194.283 77.4792 193.625 76.9714 193.078 76.3203V86.0078H190.676V58H191.477L192.785 60.0312C193.332 59.2891 194.016 58.7031 194.836 58.2734C195.669 57.8307 196.574 57.6094 197.551 57.6094H198.156C198.964 57.6094 199.725 57.7656 200.441 58.0781C201.158 58.3776 201.783 58.7943 202.316 59.3281C202.85 59.862 203.267 60.487 203.566 61.2031C203.879 61.9193 204.035 62.681 204.035 63.4883V72.5117ZM201.633 63.3516C201.633 62.8698 201.542 62.4206 201.359 62.0039C201.177 61.5742 200.93 61.2031 200.617 60.8906C200.305 60.5781 199.934 60.3307 199.504 60.1484C199.087 59.9661 198.638 59.875 198.156 59.875H196.555C196.073 59.875 195.617 59.9661 195.188 60.1484C194.771 60.3307 194.406 60.5781 194.094 60.8906C193.781 61.2031 193.534 61.5742 193.352 62.0039C193.169 62.4206 193.078 62.8698 193.078 63.3516V72.6484C193.078 73.1302 193.169 73.5859 193.352 74.0156C193.534 74.4323 193.781 74.7969 194.094 75.1094C194.406 75.4219 194.771 75.6693 195.188 75.8516C195.617 76.0339 196.073 76.125 196.555 76.125H198.156C198.638 76.125 199.087 76.0339 199.504 75.8516C199.934 75.6693 200.305 75.4219 200.617 75.1094C200.93 74.7969 201.177 74.4323 201.359 74.0156C201.542 73.5859 201.633 73.1302 201.633 72.6484V63.3516ZM222.199 72.5117C222.199 73.319 222.043 74.0807 221.73 74.7969C221.431 75.513 221.014 76.138 220.48 76.6719C219.947 77.2057 219.322 77.6289 218.605 77.9414C217.889 78.2409 217.128 78.3906 216.32 78.3906H215.715C214.816 78.3906 213.983 78.2083 213.215 77.8438C212.447 77.4792 211.789 76.9714 211.242 76.3203V86.0078H208.84V58H209.641L210.949 60.0312C211.496 59.2891 212.18 58.7031 213 58.2734C213.833 57.8307 214.738 57.6094 215.715 57.6094H216.32C217.128 57.6094 217.889 57.7656 218.605 58.0781C219.322 58.3776 219.947 58.7943 220.48 59.3281C221.014 59.862 221.431 60.487 221.73 61.2031C222.043 61.9193 222.199 62.681 222.199 63.4883V72.5117ZM219.797 63.3516C219.797 62.8698 219.706 62.4206 219.523 62.0039C219.341 61.5742 219.094 61.2031 218.781 60.8906C218.469 60.5781 218.098 60.3307 217.668 60.1484C217.251 59.9661 216.802 59.875 216.32 59.875H214.719C214.237 59.875 213.781 59.9661 213.352 60.1484C212.935 60.3307 212.57 60.5781 212.258 60.8906C211.945 61.2031 211.698 61.5742 211.516 62.0039C211.333 62.4206 211.242 62.8698 211.242 63.3516V72.6484C211.242 73.1302 211.333 73.5859 211.516 74.0156C211.698 74.4323 211.945 74.7969 212.258 75.1094C212.57 75.4219 212.935 75.6693 213.352 75.8516C213.781 76.0339 214.237 76.125 214.719 76.125H216.32C216.802 76.125 217.251 76.0339 217.668 75.8516C218.098 75.6693 218.469 75.4219 218.781 75.1094C219.094 74.7969 219.341 74.4323 219.523 74.0156C219.706 73.5859 219.797 73.1302 219.797 72.6484V63.3516ZM240.363 72.5117C240.363 73.319 240.207 74.0807 239.895 74.7969C239.595 75.513 239.178 76.138 238.645 76.6719C238.111 77.2057 237.486 77.6289 236.77 77.9414C236.053 78.2409 235.292 78.3906 234.484 78.3906H232.883C232.076 78.3906 231.314 78.2409 230.598 77.9414C229.882 77.6289 229.257 77.2057 228.723 76.6719C228.189 76.138 227.766 75.513 227.453 74.7969C227.154 74.0807 227.004 73.319 227.004 72.5117V63.4883C227.004 62.681 227.154 61.9193 227.453 61.2031C227.766 60.487 228.189 59.862 228.723 59.3281C229.257 58.7943 229.882 58.3776 230.598 58.0781C231.314 57.7656 232.076 57.6094 232.883 57.6094H234.484C235.292 57.6094 236.053 57.7656 236.77 58.0781C237.486 58.3776 238.111 58.7943 238.645 59.3281C239.178 59.862 239.595 60.487 239.895 61.2031C240.207 61.9193 240.363 62.681 240.363 63.4883V68.1953H229.406V72.6484C229.406 73.1302 229.497 73.5859 229.68 74.0156C229.862 74.4323 230.109 74.7969 230.422 75.1094C230.734 75.4219 231.099 75.6693 231.516 75.8516C231.945 76.0339 232.401 76.125 232.883 76.125H234.484C234.966 76.125 235.415 76.0339 235.832 75.8516C236.262 75.6693 236.633 75.4219 236.945 75.1094C237.258 74.7969 237.505 74.4323 237.688 74.0156C237.87 73.5859 237.961 73.1302 237.961 72.6484V71.3203L240.363 71.7109V72.5117ZM237.961 63.3516C237.961 62.8698 237.87 62.4206 237.688 62.0039C237.505 61.5742 237.258 61.2031 236.945 60.8906C236.633 60.5781 236.262 60.3307 235.832 60.1484C235.415 59.9661 234.966 59.875 234.484 59.875H232.883C232.401 59.875 231.945 59.9661 231.516 60.1484C231.099 60.3307 230.734 60.5781 230.422 60.8906C230.109 61.2031 229.862 61.5742 229.68 62.0039C229.497 62.4206 229.406 62.8698 229.406 63.3516V66.3203H237.961V63.3516ZM251.047 60.2852C250.565 60.2852 250.109 60.3763 249.68 60.5586C249.263 60.7409 248.898 60.9883 248.586 61.3008C248.273 61.6133 248.026 61.9844 247.844 62.4141C247.661 62.8307 247.57 63.2799 247.57 63.7617V78H245.168V58H245.969L247.277 60.0312C247.824 59.2891 248.508 58.7031 249.328 58.2734C250.161 57.8307 251.066 57.6094 252.043 57.6094H253.449V60.2852H251.047Z" fill="#0B57D0"/>
<path d="M18.5547 32.5156C18.5547 33.4661 18.3724 34.3581 18.0078 35.1914C17.6562 36.0247 17.168 36.7539 16.543 37.3789C15.918 38.0039 15.1888 38.4987 14.3555 38.8633C13.5221 39.2148 12.6302 39.3906 11.6797 39.3906H9.6875C8.73698 39.3906 7.83854 39.2148 6.99219 38.8633C6.15885 38.4987 5.42969 38.0039 4.80469 37.3789C4.17969 36.7539 3.6849 36.0247 3.32031 35.1914C2.96875 34.3581 2.79297 33.4661 2.79297 32.5156V17.4766C2.79297 16.526 2.96875 15.6341 3.32031 14.8008C3.6849 13.9674 4.17969 13.2383 4.80469 12.6133C5.42969 11.9883 6.15885 11.5 6.99219 11.1484C7.83854 10.7839 8.73698 10.6016 9.6875 10.6016H11.6797C12.6302 10.6016 13.5221 10.7839 14.3555 11.1484C15.1888 11.5 15.918 11.9883 16.543 12.6133C17.168 13.2383 17.6562 13.9674 18.0078 14.8008C18.3724 15.6341 18.5547 16.526 18.5547 17.4766V18.6094L16.0352 19V17.4766C16.0352 16.8516 15.918 16.2721 15.6836 15.7383C15.4492 15.1914 15.1302 14.7161 14.7266 14.3125C14.3229 13.9089 13.8477 13.5898 13.3008 13.3555C12.7669 13.1211 12.1875 13.0039 11.5625 13.0039H9.80469C9.17969 13.0039 8.59375 13.1211 8.04688 13.3555C7.51302 13.5898 7.03776 13.9089 6.62109 14.3125C6.21745 14.7161 5.89844 15.1914 5.66406 15.7383C5.42969 16.2721 5.3125 16.8516 5.3125 17.4766V32.5156C5.3125 33.1406 5.42969 33.7266 5.66406 34.2734C5.89844 34.8073 6.21745 35.2826 6.62109 35.6992C7.03776 36.1029 7.51302 36.4219 8.04688 36.6562C8.59375 36.8906 9.17969 37.0078 9.80469 37.0078H11.5625C12.1875 37.0078 12.7669 36.8906 13.3008 36.6562C13.8477 36.4219 14.3229 36.1029 14.7266 35.6992C15.1302 35.2826 15.4492 34.8073 15.6836 34.2734C15.918 33.7266 16.0352 33.1406 16.0352 32.5156V30.9922L18.5547 31.4023V32.5156ZM35.9375 39L34.6094 36.9688C34.0625 37.7109 33.3789 38.3034 32.5586 38.7461C31.7383 39.1758 30.8398 39.3906 29.8633 39.3906H29.2578C28.4505 39.3906 27.6888 39.2409 26.9727 38.9414C26.2565 38.6289 25.6315 38.2057 25.0977 37.6719C24.5638 37.138 24.1406 36.513 23.8281 35.7969C23.5286 35.0807 23.3789 34.319 23.3789 33.5117V19H25.7812V33.6484C25.7812 34.1302 25.8724 34.5859 26.0547 35.0156C26.237 35.4323 26.4844 35.7969 26.7969 36.1094C27.1094 36.4219 27.474 36.6693 27.8906 36.8516C28.3203 37.0339 28.776 37.125 29.2578 37.125H30.8594C31.3411 37.125 31.7904 37.0339 32.207 36.8516C32.6367 36.6693 33.0078 36.4219 33.3203 36.1094C33.6328 35.7969 33.8802 35.4323 34.0625 35.0156C34.2448 34.5859 34.3359 34.1302 34.3359 33.6484V19H36.7383V39H35.9375ZM47.4219 21.2852C46.9401 21.2852 46.4844 21.3763 46.0547 21.5586C45.638 21.7409 45.2734 21.9883 44.9609 22.3008C44.6484 22.6133 44.401 22.9844 44.2188 23.4141C44.0365 23.8307 43.9453 24.2799 43.9453 24.7617V39H41.543V19H42.3438L43.6523 21.0312C44.1992 20.2891 44.8828 19.7031 45.7031 19.2734C46.5365 18.8307 47.4414 18.6094 48.418 18.6094H49.8242V21.2852H47.4219ZM58.9062 21.2852C58.4245 21.2852 57.9688 21.3763 57.5391 21.5586C57.1224 21.7409 56.7578 21.9883 56.4453 22.3008C56.1328 22.6133 55.8854 22.9844 55.7031 23.4141C55.5208 23.8307 55.4297 24.2799 55.4297 24.7617V39H53.0273V19H53.8281L55.1367 21.0312C55.6836 20.2891 56.3672 19.7031 57.1875 19.2734C58.0208 18.8307 58.9258 18.6094 59.9023 18.6094H61.3086V21.2852H58.9062ZM77.8711 33.5117C77.8711 34.319 77.7148 35.0807 77.4023 35.7969C77.1029 36.513 76.6862 37.138 76.1523 37.6719C75.6185 38.2057 74.9935 38.6289 74.2773 38.9414C73.5612 39.2409 72.7995 39.3906 71.9922 39.3906H70.3906C69.5833 39.3906 68.8216 39.2409 68.1055 38.9414C67.3893 38.6289 66.7643 38.2057 66.2305 37.6719C65.6966 37.138 65.2734 36.513 64.9609 35.7969C64.6615 35.0807 64.5117 34.319 64.5117 33.5117V24.4883C64.5117 23.681 64.6615 22.9193 64.9609 22.2031C65.2734 21.487 65.6966 20.862 66.2305 20.3281C66.7643 19.7943 67.3893 19.3776 68.1055 19.0781C68.8216 18.7656 69.5833 18.6094 70.3906 18.6094H71.9922C72.7995 18.6094 73.5612 18.7656 74.2773 19.0781C74.9935 19.3776 75.6185 19.7943 76.1523 20.3281C76.6862 20.862 77.1029 21.487 77.4023 22.2031C77.7148 22.9193 77.8711 23.681 77.8711 24.4883V29.1953H66.9141V33.6484C66.9141 34.1302 67.0052 34.5859 67.1875 35.0156C67.3698 35.4323 67.6172 35.7969 67.9297 36.1094C68.2422 36.4219 68.6068 36.6693 69.0234 36.8516C69.4531 37.0339 69.9089 37.125 70.3906 37.125H71.9922C72.474 37.125 72.9232 37.0339 73.3398 36.8516C73.7695 36.6693 74.1406 36.4219 74.4531 36.1094C74.7656 35.7969 75.013 35.4323 75.1953 35.0156C75.3776 34.5859 75.4688 34.1302 75.4688 33.6484V32.3203L77.8711 32.7109V33.5117ZM75.4688 24.3516C75.4688 23.8698 75.3776 23.4206 75.1953 23.0039C75.013 22.5742 74.7656 22.2031 74.4531 21.8906C74.1406 21.5781 73.7695 21.3307 73.3398 21.1484C72.9232 20.9661 72.474 20.875 71.9922 20.875H70.3906C69.9089 20.875 69.4531 20.9661 69.0234 21.1484C68.6068 21.3307 68.2422 21.5781 67.9297 21.8906C67.6172 22.2031 67.3698 22.5742 67.1875 23.0039C67.0052 23.4206 66.9141 23.8698 66.9141 24.3516V27.3203H75.4688V24.3516ZM93.6328 39V24.3516C93.6328 23.8698 93.5417 23.4206 93.3594 23.0039C93.1771 22.5742 92.9297 22.2031 92.6172 21.8906C92.3047 21.5781 91.9336 21.3307 91.5039 21.1484C91.0872 20.9661 90.638 20.875 90.1562 20.875H88.5547C88.0729 20.875 87.6172 20.9661 87.1875 21.1484C86.7708 21.3307 86.4062 21.5781 86.0938 21.8906C85.7812 22.2031 85.5339 22.5742 85.3516 23.0039C85.1693 23.4206 85.0781 23.8698 85.0781 24.3516V39H82.6758V19H83.4766L84.7852 21.0312C85.332 20.2891 86.0156 19.7031 86.8359 19.2734C87.6693 18.8307 88.5742 18.6094 89.5508 18.6094H90.1562C90.9635 18.6094 91.7253 18.7656 92.4414 19.0781C93.1576 19.3776 93.7826 19.7943 94.3164 20.3281C94.8503 20.862 95.2669 21.487 95.5664 22.2031C95.8789 22.9193 96.0352 23.681 96.0352 24.4883V39H93.6328ZM114.199 33.5117C114.199 34.319 114.043 35.0807 113.73 35.7969C113.431 36.513 113.014 37.138 112.48 37.6719C111.947 38.2057 111.322 38.6289 110.605 38.9414C109.889 39.2409 109.128 39.3906 108.32 39.3906H106.719C105.911 39.3906 105.15 39.2409 104.434 38.9414C103.717 38.6289 103.092 38.2057 102.559 37.6719C102.025 37.138 101.602 36.513 101.289 35.7969C100.99 35.0807 100.84 34.319 100.84 33.5117V24.4883C100.84 23.681 100.99 22.9193 101.289 22.2031C101.602 21.487 102.025 20.862 102.559 20.3281C103.092 19.7943 103.717 19.3776 104.434 19.0781C105.15 18.7656 105.911 18.6094 106.719 18.6094H108.32C109.128 18.6094 109.889 18.7656 110.605 19.0781C111.322 19.3776 111.947 19.7943 112.48 20.3281C113.014 20.862 113.431 21.487 113.73 22.2031C114.043 22.9193 114.199 23.681 114.199 24.4883V25.2891L111.797 25.6797V24.3516C111.797 23.8698 111.706 23.4206 111.523 23.0039C111.341 22.5742 111.094 22.2031 110.781 21.8906C110.469 21.5781 110.098 21.3307 109.668 21.1484C109.251 20.9661 108.802 20.875 108.32 20.875H106.719C106.237 20.875 105.781 20.9661 105.352 21.1484C104.935 21.3307 104.57 21.5781 104.258 21.8906C103.945 22.2031 103.698 22.5742 103.516 23.0039C103.333 23.4206 103.242 23.8698 103.242 24.3516V33.6484C103.242 34.1302 103.333 34.5859 103.516 35.0156C103.698 35.4323 103.945 35.7969 104.258 36.1094C104.57 36.4219 104.935 36.6693 105.352 36.8516C105.781 37.0339 106.237 37.125 106.719 37.125H108.32C108.802 37.125 109.251 37.0339 109.668 36.8516C110.098 36.6693 110.469 36.4219 110.781 36.1094C111.094 35.7969 111.341 35.4323 111.523 35.0156C111.706 34.5859 111.797 34.1302 111.797 33.6484V32.3203L114.199 32.7109V33.5117ZM122.246 47.0078H119.922L123.477 37.2812L116.992 19H119.395L124.609 34.1562L124.688 35.1914L124.766 34.1562L129.961 19H132.363L122.246 47.0078Z" fill="#0B57D0"/>
<g clip-path="url(#clip0_6_67)">
<path d="M164.433 30.7377C164.08 29.9851 164.403 29.0915 165.154 28.7447C165.904 28.3979 166.8 28.7154 167.146 29.4658L169.547 34.5898C169.715 34.9501 169.733 35.3619 169.596 35.7381C169.46 36.1144 169.184 36.4198 168.823 36.5886L163.7 38.9898C162.947 39.3425 162.054 39.0192 161.707 38.2687C161.361 37.5183 161.678 36.6225 162.428 36.2757L164.27 35.4128L154.046 31.6998C153.265 31.4169 152.863 30.5602 153.146 29.7783C153.429 28.9964 154.286 28.5949 155.068 28.8779L165.301 32.5813L164.433 30.7377ZM132.009 41.3443L130.168 42.2073L140.395 45.9085C141.177 46.1914 141.578 47.0481 141.295 47.83C141.012 48.6119 140.156 49.0134 139.374 48.7305L129.141 45.0271L130.003 46.8685C130.356 47.6211 130.032 48.5147 129.282 48.8615C128.532 49.2083 127.636 48.8908 127.289 48.1404L124.887 43.0223C124.718 42.662 124.701 42.2502 124.837 41.874C124.973 41.4977 125.25 41.1923 125.61 41.0234L130.734 38.6222C131.486 38.2696 132.38 38.5929 132.726 39.3434C133.073 40.0938 132.756 40.9895 132.005 41.3363L132.009 41.3443ZM138.139 22.7516L152.358 27.8972C151.987 28.2418 151.686 28.6712 151.5 29.1827C150.89 30.87 151.764 32.7354 153.451 33.3459L160.351 35.8432C159.755 36.7575 159.631 37.943 160.124 39.0057C160.886 40.6309 162.819 41.3308 164.445 40.5692L165.99 39.8451L161.426 52.4555C160.675 54.5308 158.377 55.6076 156.302 54.8567L142.084 49.7111C142.454 49.3665 142.756 48.9371 142.941 48.4256C143.552 46.7383 142.678 44.8729 140.991 44.2624L134.09 41.7651C134.687 40.8508 134.81 39.6653 134.317 38.6026C133.556 36.9774 131.622 36.2775 129.997 37.0392L128.452 37.7633L133.016 25.1528C133.767 23.0775 136.064 22.0007 138.139 22.7516ZM140.539 27.8756L136.778 26.5142L135.416 30.2767C137.491 31.0276 139.788 29.9509 140.539 27.8756ZM159.026 47.3316C156.951 46.5807 154.653 47.6575 153.902 49.7327L157.664 51.0941L159.026 47.3316ZM145.178 44.448C146.675 44.9896 148.325 44.9144 149.767 44.2389C151.208 43.5635 152.322 42.3431 152.864 40.8462C153.405 39.3494 153.33 37.6987 152.655 36.2573C151.98 34.8159 150.76 33.7019 149.263 33.1603C147.767 32.6187 146.116 32.6939 144.675 33.3694C143.234 34.0449 142.12 35.2652 141.578 36.7621C141.036 38.2589 141.111 39.9096 141.787 41.351C142.462 42.7924 143.682 43.9064 145.178 44.448Z" fill="#0B57D0"/>
</g>
<defs>
<clipPath id="clip0_6_67">
<rect width="40" height="32" fill="white" transform="translate(133.86 16.9521) rotate(19.8947)"/>
</clipPath>
</defs>
</svg>
